<?xml version="1.0" encoding="UTF-8" standalone="no"?>
<!DOCTYPE svg PUBLIC "-//W3C//DTD SVG 1.1//EN"
 "http://www.w3.org/Graphics/SVG/1.1/DTD/svg11.dtd">
<!-- Generated by graphviz version 2.40.1 (20161225.0304)
 -->
<!-- Title: PRISMA Pages: 1 -->
<svg width="584pt" height="442pt"
 viewBox="0.00 0.00 584.00 442.00" xmlns="http://www.w3.org/2000/svg" xmlns:xlink="http://www.w3.org/1999/xlink">
<g id="graph0" class="graph" transform="scale(1 1) rotate(0) translate(4 438)">
<title>PRISMA</title>
<polygon fill="#ffffff" stroke="transparent" points="-4,4 -4,-438 580,-438 580,4 -4,4"/>
<!-- A -->
<g id="node1" class="node">
<title>A</title>
<polygon fill="#add8e6" stroke="#000000" points="279,-434 99,-434 99,-376 279,-376 279,-434"/>
<text text-anchor="middle" x="189" y="-414" font-family="Arial" font-size="10.00" fill="#000000">Records identified through</text>
<text text-anchor="middle" x="189" y="-402" font-family="Arial" font-size="10.00" fill="#000000">database searching</text>
<text text-anchor="middle" x="189" y="-390" font-family="Arial" font-size="10.00" fill="#000000">(n = 1674)</text>
</g>
<!-- B -->
<g id="node2" class="node">
<title>B</title>
<polygon fill="#000000" stroke="#000000" points="279,-340 99,-340 99,-282 279,-282 279,-340"/>
<text text-anchor="middle" x="189" y="-320" font-family="Arial" font-size="10.00" fill="#000000">Records screened</text>
<text text-anchor="middle" x="189" y="-308" font-family="Arial" font-size="10.00" fill="#000000">(title and abstract)</text>
<text text-anchor="middle" x="189" y="-296" font-family="Arial" font-size="10.00" fill="#000000">(n = 1674)</text>
</g>
<!-- A&#45;&gt;B -->
<g id="edge1" class="edge">
<title>A&#45;&gt;B</title>
<path fill="none" stroke="#000000" stroke-width="1.5" d="M189,-375.7731C189,-366.7542 189,-356.7114 189,-347.2774"/>
<polygon fill="#000000" stroke="#000000" stroke-width="1.5" points="189,-340.2088 192.1501,-347.2088 189.25,-343.7088 189.2501,-347.2088 189.0001,-347.2088 188.7501,-347.2088 188.75,-343.7088 185.8501,-347.2089 189,-340.2088 189,-340.2088"/>
</g>
<!-- C -->
<g id="node3" class="node">
<title>C</title>
<polygon fill="#f08080" stroke="#000000" points="180,-246 0,-246 0,-188 180,-188 180,-246"/>
<text text-anchor="middle" x="90" y="-226" font-family="Arial" font-size="10.00" fill="#000000">Records excluded</text>
<text text-anchor="middle" x="90" y="-214" font-family="Arial" font-size="10.00" fill="#000000">at title stage</text>
<text text-anchor="middle" x="90" y="-202" font-family="Arial" font-size="10.00" fill="#000000">(n = 1338)</text>
</g>
<!-- B&#45;&gt;C -->
<g id="edge2" class="edge">
<title>B&#45;&gt;C</title>
<path fill="none" stroke="#000000" stroke-width="1.5" stroke-dasharray="5,2" d="M158.2185,-281.7731C147.9749,-272.0468 136.477,-261.1297 125.8818,-251.0696"/>
<polygon fill="#000000" stroke="#000000" stroke-width="1.5" points="120.7625,-246.2088 128.0078,-248.7444 123.4728,-248.4375 126.0109,-250.8475 125.8388,-251.0288 125.6667,-251.2101 123.1285,-248.8001 123.6698,-253.3131 120.7625,-246.2088 120.7625,-246.2088"/>
</g>
<!-- D -->
<g id="node4" class="node">
<title>D</title>
<polygon fill="#000000" stroke="#000000" points="378,-246 198,-246 198,-188 378,-188 378,-246"/>
<text text-anchor="middle" x="288" y="-226" font-family="Arial" font-size="10.00" fill="#000000">Records screened</text>
<text text-anchor="middle" x="288" y="-214" font-family="Arial" font-size="10.00" fill="#000000">(abstract)</text>
<text text-anchor="middle" x="288" y="-202" font-family="Arial" font-size="10.00" fill="#000000">(n = 336)</text>
</g>
<!-- B&#45;&gt;D -->
<g id="edge3" class="edge">
<title>B&#45;&gt;D</title>
<path fill="none" stroke="#000000" stroke-width="1.5" d="M219.7815,-281.7731C230.0251,-272.0468 241.523,-261.1297 252.1182,-251.0696"/>
<polygon fill="#000000" stroke="#000000" stroke-width="1.5" points="257.2375,-246.2088 254.3302,-253.3131 254.8715,-248.8001 252.3333,-251.2101 252.1612,-251.0288 251.9891,-250.8475 254.5272,-248.4375 249.9922,-248.7444 257.2375,-246.2088 257.2375,-246.2088"/>
</g>
<!-- E -->
<g id="node5" class="node">
<title>E</title>
<polygon fill="#f08080" stroke="#000000" points="279,-152 99,-152 99,-94 279,-94 279,-152"/>
<text text-anchor="middle" x="189" y="-132" font-family="Arial" font-size="10.00" fill="#000000">Records excluded</text>
<text text-anchor="middle" x="189" y="-120" font-family="Arial" font-size="10.00" fill="#000000">at abstract stage</text>
<text text-anchor="middle" x="189" y="-108" font-family="Arial" font-size="10.00" fill="#000000">(n = 245)</text>
</g>
<!-- D&#45;&gt;E -->
<g id="edge4" class="edge">
<title>D&#45;&gt;E</title>
<path fill="none" stroke="#000000" stroke-width="1.5" stroke-dasharray="5,2" d="M257.2185,-187.7731C246.9749,-178.0468 235.477,-167.1297 224.8818,-157.0696"/>
<polygon fill="#000000" stroke="#000000" stroke-width="1.5" points="219.7625,-152.2088 227.0078,-154.7444 222.4728,-154.4375 225.0109,-156.8475 224.8388,-157.0288 224.6667,-157.2101 222.1285,-154.8001 222.6698,-159.3131 219.7625,-152.2088 219.7625,-152.2088"/>
</g>
<!-- F -->
<g id="node6" class="node">
<title>F</title>
<polygon fill="#000000" stroke="#000000" points="477,-152 297,-152 297,-94 477,-94 477,-152"/>
<text text-anchor="middle" x="387" y="-132" font-family="Arial" font-size="10.00" fill="#000000">Full&#45;text articles</text>
<text text-anchor="middle" x="387" y="-120" font-family="Arial" font-size="10.00" fill="#000000">assessed for eligibility</text>
<text text-anchor="middle" x="387" y="-108" font-family="Arial" font-size="10.00" fill="#000000">(n = 91)</text>
</g>
<!-- D&#45;&gt;F -->
<g id="edge5" class="edge">
<title>D&#45;&gt;F</title>
<path fill="none" stroke="#000000" stroke-width="1.5" d="M318.7815,-187.7731C329.0251,-178.0468 340.523,-167.1297 351.1182,-157.0696"/>
<polygon fill="#000000" stroke="#000000" stroke-width="1.5" points="356.2375,-152.2088 353.3302,-159.3131 353.8715,-154.8001 351.3333,-157.2101 351.1612,-157.0288 350.9891,-156.8475 353.5272,-154.4375 348.9922,-154.7444 356.2375,-152.2088 356.2375,-152.2088"/>
</g>
<!-- G -->
<g id="node7" class="node">
<title>G</title>
<polygon fill="#f08080" stroke="#000000" points="378,-58 198,-58 198,0 378,0 378,-58"/>
<text text-anchor="middle" x="288" y="-38" font-family="Arial" font-size="10.00" fill="#000000">Full&#45;text articles</text>
<text text-anchor="middle" x="288" y="-26" font-family="Arial" font-size="10.00" fill="#000000">excluded</text>
<text text-anchor="middle" x="288" y="-14" font-family="Arial" font-size="10.00" fill="#000000">(n = 31)</text>
</g>
<!-- F&#45;&gt;G -->
<g id="edge6" class="edge">
<title>F&#45;&gt;G</title>
<path fill="none" stroke="#000000" stroke-width="1.5" stroke-dasharray="5,2" d="M356.2185,-93.7731C345.9749,-84.0468 334.477,-73.1297 323.8818,-63.0696"/>
<polygon fill="#000000" stroke="#000000" stroke-width="1.5" points="318.7625,-58.2088 326.0078,-60.7444 321.4728,-60.4375 324.0109,-62.8475 323.8388,-63.0288 323.6667,-63.2101 321.1285,-60.8001 321.6698,-65.3131 318.7625,-58.2088 318.7625,-58.2088"/>
</g>
<!-- H -->
<g id="node8" class="node">
<title>H</title>
<polygon fill="#ffd700" stroke="#000000" points="576,-58 396,-58 396,0 576,0 576,-58"/>
<text text-anchor="middle" x="486" y="-38" font-family="Arial" font-size="10.00" fill="#000000">Studies included in</text>
<text text-anchor="middle" x="486" y="-26" font-family="Arial" font-size="10.00" fill="#000000">qualitative synthesis</text>
<text text-anchor="middle" x="486" y="-14" font-family="Arial" font-size="10.00" fill="#000000">(n = 7)</text>
</g>
<!-- F&#45;&gt;H -->
<g id="edge7" class="edge">
<title>F&#45;&gt;H</title>
<path fill="none" stroke="#000000" stroke-width="1.5" d="M417.7815,-93.7731C428.0251,-84.0468 439.523,-73.1297 450.1182,-63.0696"/>
<polygon fill="#000000" stroke="#000000" stroke-width="1.5" points="455.2375,-58.2088 452.3302,-65.3131 452.8715,-60.8001 450.3333,-63.2101 450.1612,-63.0288 449.9891,-62.8475 452.5272,-60.4375 447.9922,-60.7444 455.2375,-58.2088 455.2375,-58.2088"/>
</g>
</g>
</svg>

