<?xml version="1.0" encoding="UTF-8" standalone="no"?>
<!DOCTYPE svg PUBLIC "-//W3C//DTD SVG 1.1//EN"
 "http://www.w3.org/Graphics/SVG/1.1/DTD/svg11.dtd">
<!-- Generated by graphviz version 2.40.1 (20161225.0304)
 -->
<!-- Title: PRISMA Pages: 1 -->
<svg width="920pt" height="654pt"
 viewBox="0.00 0.00 920.00 654.00" xmlns="http://www.w3.org/2000/svg" xmlns:xlink="http://www.w3.org/1999/xlink">
<g id="graph0" class="graph" transform="scale(1 1) rotate(0) translate(4 650)">
<title>PRISMA</title>
<polygon fill="#ffffff" stroke="transparent" points="-4,4 -4,-650 916,-650 916,4 -4,4"/>
<g id="clust1" class="cluster">
<title>cluster_0</title>
</g>
<g id="clust2" class="cluster">
<title>cluster_1</title>
</g>
<g id="clust3" class="cluster">
<title>cluster_2</title>
</g>
<g id="clust4" class="cluster">
<title>cluster_3</title>
</g>
<g id="clust5" class="cluster">
<title>cluster_4</title>
</g>
<!-- A -->
<g id="node1" class="node">
<title>A</title>
<polygon fill="#add8e6" stroke="#000000" points="328,-630 126,-630 126,-558 328,-558 328,-630"/>
<text text-anchor="middle" x="227" y="-603" font-family="Arial" font-size="10.00" fill="#000000">Records identified through</text>
<text text-anchor="middle" x="227" y="-591" font-family="Arial" font-size="10.00" fill="#000000">database searching</text>
<text text-anchor="middle" x="227" y="-579" font-family="Arial" font-size="10.00" fill="#000000">(n = 1674)</text>
</g>
<!-- B -->
<g id="node2" class="node">
<title>B</title>
<polygon fill="#add8e6" stroke="#000000" points="218,-522 16,-522 16,-450 218,-450 218,-522"/>
<text text-anchor="middle" x="117" y="-495" font-family="Arial" font-size="10.00" fill="#000000">Records after duplicates</text>
<text text-anchor="middle" x="117" y="-483" font-family="Arial" font-size="10.00" fill="#000000">removed</text>
<text text-anchor="middle" x="117" y="-471" font-family="Arial" font-size="10.00" fill="#000000">(n = 1669)</text>
</g>
<!-- A&#45;&gt;B -->
<g id="edge1" class="edge">
<title>A&#45;&gt;B</title>
<path fill="none" stroke="#000000" stroke-width="2" d="M190.0656,-557.7371C180.3611,-548.2091 169.8125,-537.8523 159.8275,-528.0488"/>
<polygon fill="#000000" stroke="#000000" stroke-width="2" points="161.6944,-525.9578 154.0242,-522.351 157.771,-529.9537 161.6944,-525.9578"/>
</g>
<!-- C -->
<g id="node3" class="node">
<title>C</title>
<polygon fill="#f08080" stroke="#000000" points="438,-522 236,-522 236,-450 438,-450 438,-522"/>
<text text-anchor="middle" x="337" y="-495" font-family="Arial" font-size="10.00" fill="#000000">Records excluded</text>
<text text-anchor="middle" x="337" y="-483" font-family="Arial" font-size="10.00" fill="#000000">(duplicates)</text>
<text text-anchor="middle" x="337" y="-471" font-family="Arial" font-size="10.00" fill="#000000">(n = 5)</text>
</g>
<!-- A&#45;&gt;C -->
<g id="edge2" class="edge">
<title>A&#45;&gt;C</title>
<path fill="none" stroke="#000000" stroke-width="2" stroke-dasharray="5,2" d="M263.9344,-557.7371C273.6389,-548.2091 284.1875,-537.8523 294.1725,-528.0488"/>
<polygon fill="#000000" stroke="#000000" stroke-width="2" points="296.229,-529.9537 299.9758,-522.351 292.3056,-525.9578 296.229,-529.9537"/>
</g>
<!-- D -->
<g id="node4" class="node">
<title>D</title>
<polygon fill="#000000" stroke="#000000" points="218,-414 16,-414 16,-342 218,-342 218,-414"/>
<text text-anchor="middle" x="117" y="-387" font-family="Arial" font-size="10.00" fill="#000000">Records screened</text>
<text text-anchor="middle" x="117" y="-375" font-family="Arial" font-size="10.00" fill="#000000">(title and abstract)</text>
<text text-anchor="middle" x="117" y="-363" font-family="Arial" font-size="10.00" fill="#000000">(n = 1669)</text>
</g>
<!-- B&#45;&gt;D -->
<g id="edge3" class="edge">
<title>B&#45;&gt;D</title>
<path fill="none" stroke="#000000" stroke-width="2" d="M117,-449.7371C117,-441.0105 117,-431.5887 117,-422.5335"/>
<polygon fill="#000000" stroke="#000000" stroke-width="2" points="119.8001,-422.351 117,-414.351 114.2001,-422.351 119.8001,-422.351"/>
</g>
<!-- E -->
<g id="node5" class="node">
<title>E</title>
<polygon fill="#f08080" stroke="#000000" points="218,-306 16,-306 16,-234 218,-234 218,-306"/>
<text text-anchor="middle" x="117" y="-279" font-family="Arial" font-size="10.00" fill="#000000">Records excluded</text>
<text text-anchor="middle" x="117" y="-267" font-family="Arial" font-size="10.00" fill="#000000">(title screening)</text>
<text text-anchor="middle" x="117" y="-255" font-family="Arial" font-size="10.00" fill="#000000">(n = 1338)</text>
</g>
<!-- D&#45;&gt;E -->
<g id="edge4" class="edge">
<title>D&#45;&gt;E</title>
<path fill="none" stroke="#000000" stroke-width="2" stroke-dasharray="5,2" d="M117,-341.7371C117,-333.0105 117,-323.5887 117,-314.5335"/>
<polygon fill="#000000" stroke="#000000" stroke-width="2" points="119.8001,-314.351 117,-306.351 114.2001,-314.351 119.8001,-314.351"/>
</g>
<!-- F -->
<g id="node6" class="node">
<title>F</title>
<polygon fill="#000000" stroke="#000000" points="444,-306 242,-306 242,-234 444,-234 444,-306"/>
<text text-anchor="middle" x="343" y="-279" font-family="Arial" font-size="10.00" fill="#000000">Records screened</text>
<text text-anchor="middle" x="343" y="-267" font-family="Arial" font-size="10.00" fill="#000000">(abstract)</text>
<text text-anchor="middle" x="343" y="-255" font-family="Arial" font-size="10.00" fill="#000000">(n = 331)</text>
</g>
<!-- D&#45;&gt;F -->
<g id="edge5" class="edge">
<title>D&#45;&gt;F</title>
<path fill="none" stroke="#000000" stroke-width="2" d="M192.5689,-341.8874C214.243,-331.5299 237.9882,-320.1826 260.0793,-309.6258"/>
<polygon fill="#000000" stroke="#000000" stroke-width="2" points="261.4914,-312.0544 267.5023,-306.0786 259.0768,-307.0016 261.4914,-312.0544"/>
</g>
<!-- G -->
<g id="node7" class="node">
<title>G</title>
<polygon fill="#f08080" stroke="#000000" points="444,-198 242,-198 242,-126 444,-126 444,-198"/>
<text text-anchor="middle" x="343" y="-171" font-family="Arial" font-size="10.00" fill="#000000">Records excluded</text>
<text text-anchor="middle" x="343" y="-159" font-family="Arial" font-size="10.00" fill="#000000">(abstract screening)</text>
<text text-anchor="middle" x="343" y="-147" font-family="Arial" font-size="10.00" fill="#000000">(n = 245)</text>
</g>
<!-- F&#45;&gt;G -->
<g id="edge6" class="edge">
<title>F&#45;&gt;G</title>
<path fill="none" stroke="#000000" stroke-width="2" stroke-dasharray="5,2" d="M343,-233.7371C343,-225.0105 343,-215.5887 343,-206.5335"/>
<polygon fill="#000000" stroke="#000000" stroke-width="2" points="345.8001,-206.351 343,-198.351 340.2001,-206.351 345.8001,-206.351"/>
</g>
<!-- H -->
<g id="node8" class="node">
<title>H</title>
<polygon fill="#000000" stroke="#000000" points="670,-198 468,-198 468,-126 670,-126 670,-198"/>
<text text-anchor="middle" x="569" y="-171" font-family="Arial" font-size="10.00" fill="#000000">Full&#45;text articles</text>
<text text-anchor="middle" x="569" y="-159" font-family="Arial" font-size="10.00" fill="#000000">assessed for eligibility</text>
<text text-anchor="middle" x="569" y="-147" font-family="Arial" font-size="10.00" fill="#000000">(n = 80)</text>
</g>
<!-- F&#45;&gt;H -->
<g id="edge7" class="edge">
<title>F&#45;&gt;H</title>
<path fill="none" stroke="#000000" stroke-width="2" d="M418.5689,-233.8874C440.243,-223.5299 463.9882,-212.1826 486.0793,-201.6258"/>
<polygon fill="#000000" stroke="#000000" stroke-width="2" points="487.4914,-204.0544 493.5023,-198.0786 485.0768,-199.0016 487.4914,-204.0544"/>
</g>
<!-- I -->
<g id="node9" class="node">
<title>I</title>
<polygon fill="#f08080" stroke="#000000" points="670,-90 468,-90 468,-16 670,-16 670,-90"/>
<text text-anchor="middle" x="569" y="-74" font-family="Arial" font-size="10.00" fill="#000000">Full&#45;text articles excluded</text>
<text text-anchor="middle" x="569" y="-62" font-family="Arial" font-size="10.00" fill="#000000">(n = 31)</text>
<text text-anchor="middle" x="569" y="-38" font-family="Arial" font-size="10.00" fill="#000000">Not available: 4</text>
<text text-anchor="middle" x="569" y="-26" font-family="Arial" font-size="10.00" fill="#000000">Other language: 2</text>
</g>
<!-- H&#45;&gt;I -->
<g id="edge8" class="edge">
<title>H&#45;&gt;I</title>
<path fill="none" stroke="#000000" stroke-width="2" stroke-dasharray="5,2" d="M569,-125.7046C569,-116.9802 569,-107.5526 569,-98.4693"/>
<polygon fill="#000000" stroke="#000000" stroke-width="2" points="571.8001,-98.2543 569,-90.2544 566.2001,-98.2544 571.8001,-98.2543"/>
</g>
<!-- J -->
<g id="node10" class="node">
<title>J</title>
<polygon fill="#ffd700" stroke="#000000" points="896,-89 694,-89 694,-17 896,-17 896,-89"/>
<text text-anchor="middle" x="795" y="-62" font-family="Arial" font-size="10.00" fill="#000000">Studies included in</text>
<text text-anchor="middle" x="795" y="-50" font-family="Arial" font-size="10.00" fill="#000000">qualitative synthesis</text>
<text text-anchor="middle" x="795" y="-38" font-family="Arial" font-size="10.00" fill="#000000">(n = 7)</text>
</g>
<!-- H&#45;&gt;J -->
<g id="edge9" class="edge">
<title>H&#45;&gt;J</title>
<path fill="none" stroke="#000000" stroke-width="2" d="M643.9408,-125.856C666.0856,-115.1755 690.4385,-103.4301 713.0035,-92.547"/>
<polygon fill="#000000" stroke="#000000" stroke-width="2" points="714.2726,-95.0436 720.262,-89.0462 711.8399,-89.9996 714.2726,-95.0436"/>
</g>
</g>
</svg>

