<?xml version="1.0" encoding="UTF-8" standalone="no"?>
<!DOCTYPE svg PUBLIC "-//W3C//DTD SVG 1.1//EN"
 "http://www.w3.org/Graphics/SVG/1.1/DTD/svg11.dtd">
<!-- Generated by graphviz version 2.40.1 (20161225.0304)
 -->
<!-- Title: PRISMA Pages: 1 -->
<svg width="664pt" height="881pt"
 viewBox="0.00 0.00 664.00 881.20" xmlns="http://www.w3.org/2000/svg" xmlns:xlink="http://www.w3.org/1999/xlink">
<g id="graph0" class="graph" transform="scale(1 1) rotate(0) translate(4 877.2)">
<title>PRISMA</title>
<polygon fill="#ffffff" stroke="transparent" points="-4,4 -4,-877.2 660,-877.2 660,4 -4,4"/>
<!-- identification -->
<g id="node1" class="node">
<title>identification</title>
<path fill="#add8e6" stroke="#000000" d="M168,-873.2C168,-873.2 12,-873.2 12,-873.2 6,-873.2 0,-867.2 0,-861.2 0,-861.2 0,-813.2 0,-813.2 0,-807.2 6,-801.2 12,-801.2 12,-801.2 168,-801.2 168,-801.2 174,-801.2 180,-807.2 180,-813.2 180,-813.2 180,-861.2 180,-861.2 180,-867.2 174,-873.2 168,-873.2"/>
<text text-anchor="middle" x="90" y="-848" font-family="Arial" font-size="12.00" fill="#000000">Records identified through</text>
<text text-anchor="middle" x="90" y="-833.6" font-family="Arial" font-size="12.00" fill="#000000">database searching</text>
<text text-anchor="middle" x="90" y="-819.2" font-family="Arial" font-size="12.00" fill="#000000">(n = 1,674)</text>
</g>
<!-- title_screen -->
<g id="node2" class="node">
<title>title_screen</title>
<path fill="#000000" stroke="#000000" d="M168,-687C168,-687 12,-687 12,-687 6,-687 0,-681 0,-675 0,-675 0,-627 0,-627 0,-621 6,-615 12,-615 12,-615 168,-615 168,-615 174,-615 180,-621 180,-627 180,-627 180,-675 180,-675 180,-681 174,-687 168,-687"/>
<text text-anchor="middle" x="90" y="-661.8" font-family="Arial" font-size="12.00" fill="#000000">Records screened</text>
<text text-anchor="middle" x="90" y="-647.4" font-family="Arial" font-size="12.00" fill="#000000">by title</text>
<text text-anchor="middle" x="90" y="-633" font-family="Arial" font-size="12.00" fill="#000000">(n = 1,674)</text>
</g>
<!-- identification&#45;&gt;title_screen -->
<g id="edge1" class="edge">
<title>identification&#45;&gt;title_screen</title>
<path fill="none" stroke="#000000" d="M90,-800.8567C90,-800.8567 90,-697.2516 90,-697.2516"/>
<polygon fill="#000000" stroke="#000000" points="93.5001,-697.2516 90,-687.2516 86.5001,-697.2516 93.5001,-697.2516"/>
</g>
<!-- title_exclude -->
<g id="node3" class="node">
<title>title_exclude</title>
<path fill="#f08080" stroke="#000000" d="M442,-715.4006C442,-715.4006 250,-715.4006 250,-715.4006 244,-715.4006 238,-709.4006 238,-703.4006 238,-703.4006 238,-598.5994 238,-598.5994 238,-592.5994 244,-586.5994 250,-586.5994 250,-586.5994 442,-586.5994 442,-586.5994 448,-586.5994 454,-592.5994 454,-598.5994 454,-598.5994 454,-703.4006 454,-703.4006 454,-709.4006 448,-715.4006 442,-715.4006"/>
<text text-anchor="middle" x="346" y="-690.4" font-family="Arial" font-size="12.00" fill="#000000">Records excluded</text>
<text text-anchor="middle" x="346" y="-676" font-family="Arial" font-size="12.00" fill="#000000">by title</text>
<text text-anchor="middle" x="346" y="-661.6" font-family="Arial" font-size="12.00" fill="#000000">(n = 1,357)</text>
<text text-anchor="middle" x="346" y="-633.2" font-family="Arial" font-size="12.00" fill="#000000">• Not crime location choice</text>
<text text-anchor="middle" x="346" y="-618.8" font-family="Arial" font-size="12.00" fill="#000000">• No spatial choice models</text>
<text text-anchor="middle" x="346" y="-604.4" font-family="Arial" font-size="12.00" fill="#000000">• Review/theoretical papers</text>
</g>
<!-- title_screen&#45;&gt;title_exclude -->
<g id="edge5" class="edge">
<title>title_screen&#45;&gt;title_exclude</title>
<path fill="none" stroke="#000000" d="M180.256,-651C180.256,-651 227.6924,-651 227.6924,-651"/>
<polygon fill="#000000" stroke="#000000" points="227.6925,-654.5001 237.6924,-651 227.6924,-647.5001 227.6925,-654.5001"/>
</g>
<!-- abstract_screen -->
<g id="node4" class="node">
<title>abstract_screen</title>
<path fill="#000000" stroke="#000000" d="M168,-472.6C168,-472.6 12,-472.6 12,-472.6 6,-472.6 0,-466.6 0,-460.6 0,-460.6 0,-412.6 0,-412.6 0,-406.6 6,-400.6 12,-400.6 12,-400.6 168,-400.6 168,-400.6 174,-400.6 180,-406.6 180,-412.6 180,-412.6 180,-460.6 180,-460.6 180,-466.6 174,-472.6 168,-472.6"/>
<text text-anchor="middle" x="90" y="-447.4" font-family="Arial" font-size="12.00" fill="#000000">Records screened</text>
<text text-anchor="middle" x="90" y="-433" font-family="Arial" font-size="12.00" fill="#000000">by abstract</text>
<text text-anchor="middle" x="90" y="-418.6" font-family="Arial" font-size="12.00" fill="#000000">(n = 317)</text>
</g>
<!-- title_screen&#45;&gt;abstract_screen -->
<g id="edge2" class="edge">
<title>title_screen&#45;&gt;abstract_screen</title>
<path fill="none" stroke="#000000" d="M90,-614.63C90,-614.63 90,-482.79 90,-482.79"/>
<polygon fill="#000000" stroke="#000000" points="93.5001,-482.79 90,-472.79 86.5001,-482.7901 93.5001,-482.79"/>
</g>
<!-- abstract_exclude -->
<g id="node5" class="node">
<title>abstract_exclude</title>
<path fill="#f08080" stroke="#000000" d="M442,-501.0006C442,-501.0006 250,-501.0006 250,-501.0006 244,-501.0006 238,-495.0006 238,-489.0006 238,-489.0006 238,-384.1994 238,-384.1994 238,-378.1994 244,-372.1994 250,-372.1994 250,-372.1994 442,-372.1994 442,-372.1994 448,-372.1994 454,-378.1994 454,-384.1994 454,-384.1994 454,-489.0006 454,-489.0006 454,-495.0006 448,-501.0006 442,-501.0006"/>
<text text-anchor="middle" x="346" y="-476" font-family="Arial" font-size="12.00" fill="#000000">Records excluded</text>
<text text-anchor="middle" x="346" y="-461.6" font-family="Arial" font-size="12.00" fill="#000000">by abstract</text>
<text text-anchor="middle" x="346" y="-447.2" font-family="Arial" font-size="12.00" fill="#000000">(n = 268)</text>
<text text-anchor="middle" x="346" y="-418.8" font-family="Arial" font-size="12.00" fill="#000000">• Insufficient spatial detail</text>
<text text-anchor="middle" x="346" y="-404.4" font-family="Arial" font-size="12.00" fill="#000000">• Offender residence studies</text>
<text text-anchor="middle" x="346" y="-390" font-family="Arial" font-size="12.00" fill="#000000">• No discrete choice models</text>
</g>
<!-- abstract_screen&#45;&gt;abstract_exclude -->
<g id="edge6" class="edge">
<title>abstract_screen&#45;&gt;abstract_exclude</title>
<path fill="none" stroke="#000000" d="M180.256,-436C180.256,-436 227.6924,-436 227.6924,-436"/>
<polygon fill="#000000" stroke="#000000" points="227.6925,-439.5001 237.6924,-436 227.6924,-432.5001 227.6925,-439.5001"/>
</g>
<!-- fulltext_screen -->
<g id="node6" class="node">
<title>fulltext_screen</title>
<path fill="#000000" stroke="#000000" d="M168,-258.2C168,-258.2 12,-258.2 12,-258.2 6,-258.2 0,-252.2 0,-246.2 0,-246.2 0,-198.2 0,-198.2 0,-192.2 6,-186.2 12,-186.2 12,-186.2 168,-186.2 168,-186.2 174,-186.2 180,-192.2 180,-198.2 180,-198.2 180,-246.2 180,-246.2 180,-252.2 174,-258.2 168,-258.2"/>
<text text-anchor="middle" x="90" y="-233" font-family="Arial" font-size="12.00" fill="#000000">Full&#45;text articles</text>
<text text-anchor="middle" x="90" y="-218.6" font-family="Arial" font-size="12.00" fill="#000000">assessed for eligibility</text>
<text text-anchor="middle" x="90" y="-204.2" font-family="Arial" font-size="12.00" fill="#000000">(n = 49)</text>
</g>
<!-- abstract_screen&#45;&gt;fulltext_screen -->
<g id="edge3" class="edge">
<title>abstract_screen&#45;&gt;fulltext_screen</title>
<path fill="none" stroke="#000000" d="M120,-400.23C120,-400.23 120,-268.39 120,-268.39"/>
<polygon fill="#000000" stroke="#000000" points="123.5001,-268.39 120,-258.39 116.5001,-268.3901 123.5001,-268.39"/>
</g>
<!-- fulltext_exclude -->
<g id="node7" class="node">
<title>fulltext_exclude</title>
<path fill="#f08080" stroke="#000000" d="M644,-286.6006C644,-286.6006 452,-286.6006 452,-286.6006 446,-286.6006 440,-280.6006 440,-274.6006 440,-274.6006 440,-169.7994 440,-169.7994 440,-163.7994 446,-157.7994 452,-157.7994 452,-157.7994 644,-157.7994 644,-157.7994 650,-157.7994 656,-163.7994 656,-169.7994 656,-169.7994 656,-274.6006 656,-274.6006 656,-280.6006 650,-286.6006 644,-286.6006"/>
<text text-anchor="middle" x="548" y="-261.6" font-family="Arial" font-size="12.00" fill="#000000">Full&#45;text articles</text>
<text text-anchor="middle" x="548" y="-247.2" font-family="Arial" font-size="12.00" fill="#000000">excluded</text>
<text text-anchor="middle" x="548" y="-232.8" font-family="Arial" font-size="12.00" fill="#000000">(n = 38)</text>
<text text-anchor="middle" x="548" y="-204.4" font-family="Arial" font-size="12.00" fill="#000000">• Insufficient spatial detail</text>
<text text-anchor="middle" x="548" y="-190" font-family="Arial" font-size="12.00" fill="#000000">• Offender residence studies</text>
<text text-anchor="middle" x="548" y="-175.6" font-family="Arial" font-size="12.00" fill="#000000">• No discrete choice models</text>
</g>
<!-- fulltext_screen&#45;&gt;fulltext_exclude -->
<g id="edge7" class="edge">
<title>fulltext_screen&#45;&gt;fulltext_exclude</title>
<path fill="none" stroke="#000000" d="M60,-258.3919C60,-266.1154 60,-272 60,-272 60,-272 429.9997,-272 429.9997,-272"/>
<polygon fill="#000000" stroke="#000000" points="429.9998,-275.5001 439.9997,-272 429.9997,-268.5001 429.9998,-275.5001"/>
</g>
<!-- not_available -->
<g id="node8" class="node">
<title>not_available</title>
<path fill="#ffffe0" stroke="#000000" d="M370,-258.2C370,-258.2 250,-258.2 250,-258.2 244,-258.2 238,-252.2 238,-246.2 238,-246.2 238,-198.2 238,-198.2 238,-192.2 244,-186.2 250,-186.2 250,-186.2 370,-186.2 370,-186.2 376,-186.2 382,-192.2 382,-198.2 382,-198.2 382,-246.2 382,-246.2 382,-252.2 376,-258.2 370,-258.2"/>
<text text-anchor="middle" x="310" y="-233" font-family="Arial" font-size="12.00" fill="#000000">Articles not</text>
<text text-anchor="middle" x="310" y="-218.6" font-family="Arial" font-size="12.00" fill="#000000">available</text>
<text text-anchor="middle" x="310" y="-204.2" font-family="Arial" font-size="12.00" fill="#000000">(n = 4)</text>
</g>
<!-- fulltext_screen&#45;&gt;not_available -->
<g id="edge8" class="edge">
<title>fulltext_screen&#45;&gt;not_available</title>
<path fill="none" stroke="#000000" d="M180.1172,-222C180.1172,-222 227.8472,-222 227.8472,-222"/>
<polygon fill="#000000" stroke="#000000" points="227.8472,-225.5001 237.8472,-222 227.8471,-218.5001 227.8472,-225.5001"/>
</g>
<!-- final_studies -->
<g id="node9" class="node">
<title>final_studies</title>
<path fill="#b0c4de" stroke="#000000" d="M168,-72C168,-72 12,-72 12,-72 6,-72 0,-66 0,-60 0,-60 0,-12 0,-12 0,-6 6,0 12,0 12,0 168,0 168,0 174,0 180,-6 180,-12 180,-12 180,-60 180,-60 180,-66 174,-72 168,-72"/>
<text text-anchor="middle" x="90" y="-46.8" font-family="Arial" font-size="12.00" fill="#000000">Studies included in</text>
<text text-anchor="middle" x="90" y="-32.4" font-family="Arial" font-size="12.00" fill="#000000">quantitative synthesis</text>
<text text-anchor="middle" x="90" y="-18" font-family="Arial" font-size="12.00" fill="#000000">(n = 49)</text>
</g>
<!-- fulltext_screen&#45;&gt;final_studies -->
<g id="edge4" class="edge">
<title>fulltext_screen&#45;&gt;final_studies</title>
<path fill="none" stroke="#000000" d="M90,-185.8567C90,-185.8567 90,-82.2516 90,-82.2516"/>
<polygon fill="#000000" stroke="#000000" points="93.5001,-82.2516 90,-72.2516 86.5001,-82.2516 93.5001,-82.2516"/>
</g>
</g>
</svg>

