<?xml version="1.0" encoding="UTF-8" standalone="no"?>
<!DOCTYPE svg PUBLIC "-//W3C//DTD SVG 1.1//EN"
 "http://www.w3.org/Graphics/SVG/1.1/DTD/svg11.dtd">
<!-- Generated by graphviz version 2.40.1 (20161225.0304)
 -->
<!-- Title: PRISMA_Standard Pages: 1 -->
<svg width="474pt" height="640pt"
 viewBox="0.00 0.00 474.00 639.80" xmlns="http://www.w3.org/2000/svg" xmlns:xlink="http://www.w3.org/1999/xlink">
<g id="graph0" class="graph" transform="scale(1 1) rotate(0) translate(4 635.8)">
<title>PRISMA_Standard</title>
<polygon fill="#ffffff" stroke="transparent" points="-4,4 -4,-635.8 470,-635.8 470,4 -4,4"/>
<g id="clust1" class="cluster">
<title>cluster_identification</title>
<path fill="#d3d3d3" stroke="#000000" d="M20,-521.4C20,-521.4 214,-521.4 214,-521.4 220,-521.4 226,-527.4 226,-533.4 226,-533.4 226,-611.8 226,-611.8 226,-617.8 220,-623.8 214,-623.8 214,-623.8 20,-623.8 20,-623.8 14,-623.8 8,-617.8 8,-611.8 8,-611.8 8,-533.4 8,-533.4 8,-527.4 14,-521.4 20,-521.4"/>
<text text-anchor="middle" x="117" y="-607.2" font-family="Arial Bold" font-size="14.00" fill="#000000">IDENTIFICATION</text>
</g>
<g id="clust4" class="cluster">
<title>cluster_included</title>
<path fill="#d3d3d3" stroke="#000000" d="M20,-8C20,-8 214,-8 214,-8 220,-8 226,-14 226,-20 226,-20 226,-98.4 226,-98.4 226,-104.4 220,-110.4 214,-110.4 214,-110.4 20,-110.4 20,-110.4 14,-110.4 8,-104.4 8,-98.4 8,-98.4 8,-20 8,-20 8,-14 14,-8 20,-8"/>
<text text-anchor="middle" x="117" y="-93.8" font-family="Arial Bold" font-size="14.00" fill="#000000">INCLUDED</text>
</g>
<!-- records_id -->
<g id="node1" class="node">
<title>records_id</title>
<path fill="#ffffff" stroke="#000000" d="M206,-590.8013C206,-590.8013 28,-590.8013 28,-590.8013 22,-590.8013 16,-584.8013 16,-578.8013 16,-578.8013 16,-541.5987 16,-541.5987 16,-535.5987 22,-529.5987 28,-529.5987 28,-529.5987 206,-529.5987 206,-529.5987 212,-529.5987 218,-535.5987 218,-541.5987 218,-541.5987 218,-578.8013 218,-578.8013 218,-584.8013 212,-590.8013 206,-590.8013"/>
<text text-anchor="middle" x="117" y="-570.1" font-family="Arial" font-size="11.00" fill="#000000">Records identified through</text>
<text text-anchor="middle" x="117" y="-556.9" font-family="Arial" font-size="11.00" fill="#000000">database searching</text>
<text text-anchor="middle" x="117" y="-543.7" font-family="Arial" font-size="11.00" fill="#000000">(n = 1,674)</text>
</g>
<!-- title_screen -->
<g id="node2" class="node">
<title>title_screen</title>
<path fill="#ffffff" stroke="#000000" d="M206,-467.3017C206,-467.3017 28,-467.3017 28,-467.3017 22,-467.3017 16,-461.3017 16,-455.3017 16,-455.3017 16,-430.4983 16,-430.4983 16,-424.4983 22,-418.4983 28,-418.4983 28,-418.4983 206,-418.4983 206,-418.4983 212,-418.4983 218,-424.4983 218,-430.4983 218,-430.4983 218,-455.3017 218,-455.3017 218,-461.3017 212,-467.3017 206,-467.3017"/>
<text text-anchor="middle" x="117" y="-446.2" font-family="Arial" font-size="11.00" fill="#000000">Records screened by title</text>
<text text-anchor="middle" x="117" y="-433" font-family="Arial" font-size="11.00" fill="#000000">(n = 1,674)</text>
</g>
<!-- records_id&#45;&gt;title_screen -->
<g id="edge1" class="edge">
<title>records_id&#45;&gt;title_screen</title>
<path fill="none" stroke="#000000" d="M117,-529.3808C117,-529.3808 117,-477.2269 117,-477.2269"/>
<polygon fill="#000000" stroke="#000000" points="120.5001,-477.2268 117,-467.2269 113.5001,-477.2269 120.5001,-477.2268"/>
</g>
<!-- abstract_screen -->
<g id="node3" class="node">
<title>abstract_screen</title>
<path fill="#ffffff" stroke="#000000" d="M206,-330.3017C206,-330.3017 28,-330.3017 28,-330.3017 22,-330.3017 16,-324.3017 16,-318.3017 16,-318.3017 16,-293.4983 16,-293.4983 16,-287.4983 22,-281.4983 28,-281.4983 28,-281.4983 206,-281.4983 206,-281.4983 212,-281.4983 218,-287.4983 218,-293.4983 218,-293.4983 218,-318.3017 218,-318.3017 218,-324.3017 212,-330.3017 206,-330.3017"/>
<text text-anchor="middle" x="117" y="-309.2" font-family="Arial" font-size="11.00" fill="#000000">Records screened by abstract</text>
<text text-anchor="middle" x="117" y="-296" font-family="Arial" font-size="11.00" fill="#000000">(n = 317)</text>
</g>
<!-- title_screen&#45;&gt;abstract_screen -->
<g id="edge2" class="edge">
<title>title_screen&#45;&gt;abstract_screen</title>
<path fill="none" stroke="#000000" d="M117,-418.4071C117,-418.4071 117,-340.1808 117,-340.1808"/>
<polygon fill="#000000" stroke="#000000" points="120.5001,-340.1808 117,-330.1808 113.5001,-340.1808 120.5001,-340.1808"/>
</g>
<!-- title_excl -->
<g id="node6" class="node">
<title>title_excl</title>
<path fill="#ffe4e1" stroke="#000000" d="M454,-493.4C454,-493.4 248,-493.4 248,-493.4 242,-493.4 236,-487.4 236,-481.4 236,-481.4 236,-404.4 236,-404.4 236,-398.4 242,-392.4 248,-392.4 248,-392.4 454,-392.4 454,-392.4 460,-392.4 466,-398.4 466,-404.4 466,-404.4 466,-481.4 466,-481.4 466,-487.4 460,-493.4 454,-493.4"/>
<text text-anchor="middle" x="351" y="-472.5" font-family="Arial" font-size="11.00" fill="#000000">Records excluded by title</text>
<text text-anchor="middle" x="351" y="-459.3" font-family="Arial" font-size="11.00" fill="#000000">(n = 1,357)</text>
<text text-anchor="middle" x="351" y="-433.1" font-family="Arial" font-size="11.00" fill="#000000">• Not crime location choice</text>
<text text-anchor="middle" x="351" y="-419.9" font-family="Arial" font-size="11.00" fill="#000000">• No spatial choice models</text>
<text text-anchor="middle" x="351" y="-406.7" font-family="Arial" font-size="11.00" fill="#000000">• Review/theoretical papers</text>
</g>
<!-- title_screen&#45;&gt;title_excl -->
<g id="edge5" class="edge">
<title>title_screen&#45;&gt;title_excl</title>
<path fill="none" stroke="#000000" d="M218.2748,-442C218.2748,-442 225.7901,-442 225.7901,-442"/>
<polygon fill="#000000" stroke="#000000" points="225.7902,-445.5001 235.7901,-442 225.7901,-438.5001 225.7902,-445.5001"/>
</g>
<!-- fulltext_assess -->
<g id="node4" class="node">
<title>fulltext_assess</title>
<path fill="#ffffff" stroke="#000000" d="M206,-199.5013C206,-199.5013 28,-199.5013 28,-199.5013 22,-199.5013 16,-193.5013 16,-187.5013 16,-187.5013 16,-150.2987 16,-150.2987 16,-144.2987 22,-138.2987 28,-138.2987 28,-138.2987 206,-138.2987 206,-138.2987 212,-138.2987 218,-144.2987 218,-150.2987 218,-150.2987 218,-187.5013 218,-187.5013 218,-193.5013 212,-199.5013 206,-199.5013"/>
<text text-anchor="middle" x="117" y="-178.8" font-family="Arial" font-size="11.00" fill="#000000">Full&#45;text articles assessed</text>
<text text-anchor="middle" x="117" y="-165.6" font-family="Arial" font-size="11.00" fill="#000000">for eligibility</text>
<text text-anchor="middle" x="117" y="-152.4" font-family="Arial" font-size="11.00" fill="#000000">(n = 49)</text>
</g>
<!-- abstract_screen&#45;&gt;fulltext_assess -->
<g id="edge3" class="edge">
<title>abstract_screen&#45;&gt;fulltext_assess</title>
<path fill="none" stroke="#000000" d="M117,-281.4071C117,-281.4071 117,-209.9125 117,-209.9125"/>
<polygon fill="#000000" stroke="#000000" points="120.5001,-209.9125 117,-199.9125 113.5001,-209.9126 120.5001,-209.9125"/>
</g>
<!-- abstract_excl -->
<g id="node7" class="node">
<title>abstract_excl</title>
<path fill="#ffe4e1" stroke="#000000" d="M454,-356.4C454,-356.4 248,-356.4 248,-356.4 242,-356.4 236,-350.4 236,-344.4 236,-344.4 236,-267.4 236,-267.4 236,-261.4 242,-255.4 248,-255.4 248,-255.4 454,-255.4 454,-255.4 460,-255.4 466,-261.4 466,-267.4 466,-267.4 466,-344.4 466,-344.4 466,-350.4 460,-356.4 454,-356.4"/>
<text text-anchor="middle" x="351" y="-335.5" font-family="Arial" font-size="11.00" fill="#000000">Records excluded by abstract</text>
<text text-anchor="middle" x="351" y="-322.3" font-family="Arial" font-size="11.00" fill="#000000">(n = 268)</text>
<text text-anchor="middle" x="351" y="-296.1" font-family="Arial" font-size="11.00" fill="#000000">• Insufficient spatial detail</text>
<text text-anchor="middle" x="351" y="-282.9" font-family="Arial" font-size="11.00" fill="#000000">• Offender residence studies</text>
<text text-anchor="middle" x="351" y="-269.7" font-family="Arial" font-size="11.00" fill="#000000">• No discrete choice models</text>
</g>
<!-- abstract_screen&#45;&gt;abstract_excl -->
<g id="edge6" class="edge">
<title>abstract_screen&#45;&gt;abstract_excl</title>
<path fill="none" stroke="#000000" d="M218.2748,-305C218.2748,-305 225.7901,-305 225.7901,-305"/>
<polygon fill="#000000" stroke="#000000" points="225.7902,-308.5001 235.7901,-305 225.7901,-301.5001 225.7902,-308.5001"/>
</g>
<!-- final_included -->
<g id="node5" class="node">
<title>final_included</title>
<path fill="#ffffff" stroke="#000000" d="M206,-77.4013C206,-77.4013 28,-77.4013 28,-77.4013 22,-77.4013 16,-71.4013 16,-65.4013 16,-65.4013 16,-28.1987 16,-28.1987 16,-22.1987 22,-16.1987 28,-16.1987 28,-16.1987 206,-16.1987 206,-16.1987 212,-16.1987 218,-22.1987 218,-28.1987 218,-28.1987 218,-65.4013 218,-65.4013 218,-71.4013 212,-77.4013 206,-77.4013"/>
<text text-anchor="middle" x="117" y="-56.7" font-family="Arial" font-size="11.00" fill="#000000">Studies included in</text>
<text text-anchor="middle" x="117" y="-43.5" font-family="Arial" font-size="11.00" fill="#000000">quantitative synthesis</text>
<text text-anchor="middle" x="117" y="-30.3" font-family="Arial" font-size="11.00" fill="#000000">(n = 49)</text>
</g>
<!-- fulltext_assess&#45;&gt;final_included -->
<g id="edge4" class="edge">
<title>fulltext_assess&#45;&gt;final_included</title>
<path fill="none" stroke="#000000" d="M117,-138.089C117,-138.089 117,-87.6011 117,-87.6011"/>
<polygon fill="#000000" stroke="#000000" points="120.5001,-87.6011 117,-77.6011 113.5001,-87.6012 120.5001,-87.6011"/>
</g>
<!-- fulltext_excl -->
<g id="node8" class="node">
<title>fulltext_excl</title>
<path fill="#ffe4e1" stroke="#000000" d="M454,-219.4C454,-219.4 248,-219.4 248,-219.4 242,-219.4 236,-213.4 236,-207.4 236,-207.4 236,-130.4 236,-130.4 236,-124.4 242,-118.4 248,-118.4 248,-118.4 454,-118.4 454,-118.4 460,-118.4 466,-124.4 466,-130.4 466,-130.4 466,-207.4 466,-207.4 466,-213.4 460,-219.4 454,-219.4"/>
<text text-anchor="middle" x="351" y="-198.5" font-family="Arial" font-size="11.00" fill="#000000">Full&#45;text articles excluded (n = 38)</text>
<text text-anchor="middle" x="351" y="-185.3" font-family="Arial" font-size="11.00" fill="#000000">Articles not available (n = 4)</text>
<text text-anchor="middle" x="351" y="-159.1" font-family="Arial" font-size="11.00" fill="#000000">• Insufficient spatial detail</text>
<text text-anchor="middle" x="351" y="-145.9" font-family="Arial" font-size="11.00" fill="#000000">• Offender residence studies</text>
<text text-anchor="middle" x="351" y="-132.7" font-family="Arial" font-size="11.00" fill="#000000">• No discrete choice models</text>
</g>
<!-- fulltext_assess&#45;&gt;fulltext_excl -->
<g id="edge7" class="edge">
<title>fulltext_assess&#45;&gt;fulltext_excl</title>
<path fill="none" stroke="#000000" d="M218.2748,-168C218.2748,-168 225.7901,-168 225.7901,-168"/>
<polygon fill="#000000" stroke="#000000" points="225.7902,-171.5001 235.7901,-168 225.7901,-164.5001 225.7902,-171.5001"/>
</g>
</g>
</svg>

